Coordinates
version=1
nRows=21
nColumns=33
inDegrees=yes

Units are S.I. units (second, meters, Newtons, ...)
Angles are in degrees.

endheader
time	ground_thorax_rot_x	ground_thorax_rot_y	ground_thorax_rot_z	ground_thorax_tx	ground_thorax_ty	ground_thorax_tz	clav_prot_r	clav_elev_r	scapula_abduction_r	scapula_elevation_r	scapula_upward_rot_r	scapula_winging_r	shoulder_elv_r	plane_of_elev_r	axial_rot_r	elbow_flexion_r	pro_sup_r	wrist_flex_r	wrist_dev_r	clav_prot_l	clav_elev_l	scapula_abduction_l	scapula_elevation_l	scapula_upward_rot_l	scapula_winging_l	shoulder_elv_l	plane_of_elev_l	axial_rot_l	elbow_flexion_l	pro_sup_l	wrist_flex_l	wrist_dev_l
      2.27000000	    -40.69640745	     -8.88756313	     10.45642047	   -165.07981354	    819.09707540	      5.43693543	      9.20319110	    -45.00000000	     43.82155556	    -45.00000000	    -28.98126628	  -1897.53291353	  -3525.58710192	     32.86857641	     41.10683898	    731.08492890	      7.00638799	     18.16615979	     10.18470894	     16.54803482	     42.56022676	    -43.37149567	    -45.00000000	    -30.16370156	   2246.87380572	  -2978.96574536	    136.74642209	    179.99999979	  -1071.89569064	     -1.76908469	     11.28212232	    -19.27545806
      2.28000000	    -40.60971469	     -9.34437541	     11.02898121	   -169.96454969	    820.65659637	      5.41452221	      9.24657929	    -45.00000000	     43.45322334	    -45.00000000	    -30.62400002	  -1897.83818170	  -3525.30140959	     32.85885989	     42.10037718	    730.99669359	      5.83753202	     18.09237482	     10.15353306	     16.48832354	     42.26182742	    -43.00032166	    -45.00000000	    -31.35767666	   2246.97133403	  -2978.53372882	    136.74490690	    179.99999979	  -1071.97676599	     -2.17248930	     11.53827433	    -19.28932138
      2.29000000	    -40.54379687	     -9.53121876	     11.28562224	   -174.74489054	    822.19729163	      5.38029797	      9.32201119	    -45.00000000	     43.29764478	    -45.00000000	    -31.33775533	  -1898.31631207	  -3525.16320295	     32.75828169	     43.15310253	    730.92039743	      5.15166845	     18.01213987	     10.09863552	     16.56462290	     42.16197058	    -42.47229100	    -45.00000000	    -32.08610984	   2246.87284116	  -2977.98049967	    136.82849574	    179.99999979	  -1071.92682845	     -2.12393793	     12.10233948	    -19.22788270
      2.30000000	    -40.45666059	    -10.16982167	     12.04377874	   -179.43181261	    823.73469758	      5.32313696	      9.38116553	    -45.00000000	     42.80044446	    -45.00000000	    -33.39779394	  -1898.62316937	  -3524.89588150	     32.84237038	     44.29795401	    730.90592485	      4.55605910	     17.94986881	     10.04774099	     16.39493175	     41.59342852	    -42.27619659	    -45.00000000	    -33.37563069	   2247.30437502	  -2977.82142924	    136.70819408	    179.99999979	  -1072.12533832	     -2.27953756	     11.96376550	    -19.36940785
      2.31000000	    -40.36599626	    -10.28427621	     12.24845896	   -184.07622088	    825.26888458	      5.20920028	      9.49054744	    -45.00000000	     42.70061325	    -45.00000000	    -34.18685605	  -1899.04283948	  -3524.77219547	     32.74296379	     45.35643959	    730.79048588	      4.31795896	     17.86122667	      9.99604137	     16.48584026	     41.47189492	    -41.92005165	    -45.00000000	    -34.25866962	   2247.18873483	  -2977.33452153	    136.83488840	    179.99999979	  -1072.09032811	     -2.12185129	     12.39207818	    -19.32002148
      2.32000000	    -40.30532329	    -10.55845421	     12.66807494	   -188.64915936	    826.80668520	      5.06082024	      9.53621314	    -45.00000000	     42.24329488	    -45.00000000	    -36.06431510	  -1899.30905260	  -3524.50044283	     32.85677703	     46.01587085	    730.80934669	      4.17502667	     17.79724972	      9.88561375	     16.20787902	     41.08311404	    -41.90208164	    -45.00000000	    -35.21399711	   2247.61695232	  -2977.25075836	    136.77417520	    179.99999979	  -1072.21752615	     -2.35210587	     12.10321931	    -19.48747326
      2.33000000	    -40.22694970	    -10.40145642	     12.58553399	   -193.16099692	    828.33636172	      4.87088898	      9.60574957	    -45.00000000	     42.27173818	    -45.00000000	    -36.33217433	  -1899.68440732	  -3524.41470010	     32.68898663	     47.08876228	    730.72053469	      4.44489841	     17.73656652	      9.89097889	     16.33779929	     41.02974036	    -41.64430434	    -45.00000000	    -35.90516730	   2247.53142286	  -2976.87412981	    136.82614824	    179.99999979	  -1072.16498415	     -2.18160290	     12.48881135	    -19.42554732
      2.34000000	    -40.19763439	    -10.27704195	     12.48779140	   -197.55119731	    829.85502730	      4.67830902	      9.63014650	    -45.00000000	     42.16002897	    -45.00000000	    -37.09348243	  -1899.96303612	  -3524.28654141	     32.67908350	     47.92893240	    730.68814241	      4.86394847	     17.69113797	      9.77462268	     16.27985847	     40.84830675	    -41.51348415	    -45.00000000	    -36.38299962	   2247.71634549	  -2976.71325169	    136.81797954	    179.99999979	  -1072.22829702	     -2.17525463	     12.52965936	    -19.45838440
      2.35000000	    -40.13681959	    -10.18667440	     12.46006774	   -201.78830740	    831.35834346	      4.50583538	      9.71628502	    -45.00000000	     42.00733624	    -45.00000000	    -37.93666757	  -1900.26140365	  -3524.15474475	     32.69309458	     48.70286038	    730.71333804	      5.45607997	     17.67369667	      9.64855648	     16.25892684	     40.65870332	    -41.45358092	    -45.00000000	    -37.11807073	   2247.87098748	  -2976.54940044	    136.82677447	    179.99999979	  -1072.21463131	     -2.12059063	     12.53238580	    -19.51846424
      2.36000000	    -40.08209709	    -10.04187853	     12.41617978	   -205.81471008	    832.84862273	      4.39514623	      9.74538132	    -45.00000000	     41.81398127	    -45.00000000	    -39.02562906	  -1900.50507718	  -3524.01315077	     32.71708210	     49.41198380	    730.75160397	      6.19286652	     17.67329803	      9.48226376	     16.11986387	     40.36886495	    -41.37228816	    -45.00000000	    -37.63654032	   2247.99813219	  -2976.49951194	    136.81278423	    179.99999979	  -1072.30509925	     -2.11125956	     12.27030063	    -19.66501530
      2.37000000	    -40.00920028	    -10.05323432	     12.47587749	   -209.63375635	    834.31140464	      4.32908605	      9.83285596	    -45.00000000	     41.70015565	    -45.00000000	    -39.77170144	  -1900.78888841	  -3523.93461096	     32.64398971	     50.32057661	    730.84328239	      7.00481777	     17.70014773	      9.35176946	     16.10226676	     40.28878406	    -41.24951392	    -45.00000000	    -38.50970890	   2248.11008296	  -2976.28047218	    136.81378127	    179.99999979	  -1072.22486563	     -1.75530261	     12.41462640	    -19.73612162
      2.38000000	    -39.96545865	     -9.99554296	     12.46595993	   -213.24362580	    835.73454734	      4.29117318	      9.88245239	    -45.00000000	     41.55640869	    -45.00000000	    -40.45072148	  -1901.02629095	  -3523.86548696	     32.56491382	     51.30145595	    731.03514212	      7.83454483	     17.75094417	      9.17749531	     15.96832770	     40.32562540	    -41.13002664	    -45.00000000	    -39.24069482	   2248.22682889	  -2976.08502089	    136.79935185	    179.99999979	  -1072.22947165	     -1.22899360	     12.57685366	    -19.82314442
      2.39000000	    -39.82239118	    -10.04993885	     12.66304889	   -216.64180985	    837.10422320	      4.26197383	      9.96111110	    -45.00000000	     41.27491948	    -45.00000000	    -42.22156535	  -1901.31649333	  -3523.67908037	     32.86049316	     51.72713841	    731.25727673	      8.78493384	     17.82368576	      8.92791655	     16.03887448	     39.62246098	    -40.90466651	    -45.00000000	    -39.88136411	   2248.08456062	  -2976.11454347	    136.97975131	    179.99999979	  -1072.31725825	     -0.82115129	     11.95724293	    -20.10654768
      2.40000000	    -39.79460473	     -9.94341997	     12.63425612	   -219.82541369	    838.40133965	      4.22839388	     10.01024492	    -45.00000000	     41.22173497	    -45.00000000	    -42.43669634	  -1901.50795716	  -3523.68989770	     32.61692349	     53.03957150	    731.40330099	      9.83231906	     17.90628115	      8.81430795	     15.82286521	     39.94277472	    -40.86401342	    -45.00000000	    -40.75685829	   2248.33584154	  -2975.88757311	    136.75632631	    179.99999979	  -1072.29089402	      0.07384141	     12.30477940	    -20.21204936
      2.41000000	    -39.66981506	    -10.00117422	     12.81051307	   -222.77773014	    839.60121028	      4.17719988	     10.04600519	    -45.00000000	     41.01520133	    -45.00000000	    -43.88633346	  -1901.76481530	  -3523.60104891	     32.83855432	     53.20874518	    731.61164091	     11.06626698	     18.01245980	      8.54683306	     15.95810472	     39.23960178	    -40.60692267	    -45.00000000	    -41.36323051	   2248.11298200	  -2975.87713874	    137.05386862	    179.99999979	  -1072.21864945	      0.95071112	     11.72144571	    -20.51649745
      2.42000000	    -39.64208933	     -9.97086989	     12.86621620	   -225.50486460	    840.68556597	      4.10460466	     10.07162710	    -45.00000000	     40.87302350	    -45.00000000	    -44.46002908	  -1901.90948208	  -3523.69631802	     32.78035429	     54.02697560	    731.74904644	     12.55303683	     18.12652424	      8.37562803	     15.92972826	     39.07813245	    -40.47327655	    -45.00000000	    -42.22848175	   2248.24960127	  -2975.68571721	    136.91639596	    179.99999979	  -1072.17227550	      2.13870226	     11.66266313	    -20.74936192
      2.43000000	    -39.60788340	     -9.79343413	     12.77015428	   -228.01229676	    841.63788193	      4.00928998	     10.09550298	    -45.00000000	     40.73678236	    -45.00000000	    -44.73870449	  -1902.07710734	  -3523.67313643	     32.70754441	     54.69859321	    732.07568689	     14.13359802	     18.29356684	      8.24438093	     15.77249348	     39.24658188	    -40.33980646	    -45.00000000	    -43.01795355	   2248.33374437	  -2975.54759099	    136.69234050	    179.99999979	  -1072.17106088	      3.44297034	     11.76370626	    -20.96081164
      2.44000000	    -39.57724260	     -9.60903645	     12.64659496	   -230.31808753	    842.45011034	      3.89699888	     10.04672795	    -45.00000000	     40.61509319	    -45.00000000	    -45.00000000	  -1902.21145927	  -3523.74071653	     32.67607380	     54.99748855	    732.27491603	     15.93860887	     18.43561317	      8.02861257	     15.70494880	     39.01972696	    -40.07148953	    -45.00000000	    -43.01136319	   2248.22577942	  -2975.64435324	    136.87552328	    179.99999979	  -1072.14698581	      4.61874703	     11.42985287	    -21.19340056
      2.45000000	    -39.50221783	     -9.46487758	     12.55355227	   -232.42226602	    843.10961556	      3.77094955	     10.00744212	    -45.00000000	     40.48696544	    -45.00000000	    -45.00000000	  -1902.32928797	  -3523.68794525	     32.59790140	     55.41671710	    732.56512485	     17.78114435	     18.58880933	      7.83542324	     15.47162370	     39.30132908	    -39.90676069	    -45.00000000	    -43.30549577	   2248.25377023	  -2975.78318887	    136.91939321	    179.99999979	  -1072.04985580	      5.88611404	     11.37246427	    -21.42483837
      2.46000000	    -39.40178915	     -9.51349889	     12.71252671	   -234.32720690	    843.61122975	      3.63751203	     10.02327628	    -45.00000000	     40.52552718	    -45.00000000	    -45.00000000	  -1902.62418221	  -3523.86890286	     32.48454900	     55.54221229	    732.85349806	     20.95600083	     18.76748803	      7.57571617	     15.84313551	     38.29852432	    -39.81821179	    -45.00000000	    -44.73445919	   2247.89545263	  -2975.47596160	    137.10309301	    179.99999979	  -1071.83669921	      7.24830770	     10.32681543	    -21.66104325
      2.47000000	    -39.36097298	     -9.30340282	     12.61723430	   -236.02453878	    843.94375839	      3.50194161	      9.94827082	    -45.00000000	     40.41552172	    -45.00000000	    -45.00000000	  -1902.64975547	  -3523.92939065	     32.33683123	     55.85217737	    733.08263733	     23.39303553	     18.83085798	      7.23804104	     15.62791040	     38.49465299	    -39.63980556	    -45.00000000	    -45.00000000	   2247.95065069	  -2975.51472077	    136.90232191	    179.99999979	  -1071.89453724	      8.52720417	     10.52204484	    -21.86702837
